<svg xmlns="http://www.w3.org/2000/svg" width="103.5" viewBox="0 0 103.5 103.5" height="103.5" version="1.0"><defs><clipPath id="a"><path d="M 0 0 L 103.003906 0 L 103.003906 103.003906 L 0 103.003906 Z M 0 0"/></clipPath><clipPath id="b"><path d="M 56.699219 0 L 103.003906 0 L 103.003906 46.5 L 56.699219 46.5 Z M 56.699219 0"/></clipPath><clipPath id="c"><path d="M 2 54.773438 L 27 54.773438 L 27 76 L 2 76 Z M 2 54.773438"/></clipPath><clipPath id="d"><path d="M 22 82 L 47 82 L 47 103.003906 L 22 103.003906 Z M 22 82"/></clipPath><clipPath id="e"><path d="M 27 57 L 48.75 57 L 48.75 81 L 27 81 Z M 27 57"/></clipPath></defs><g clip-path="url(#a)"><path fill="#172026" d="M 89.414062 90.957031 C 86.582031 93.792969 83.332031 95.207031 79.414062 95.207031 C 75.496094 95.207031 72.078125 93.625 68.914062 90.375 C 66.078125 87.539062 64.664062 84.121094 64.664062 79.871094 C 64.664062 75.539062 66.078125 71.957031 68.914062 69.125 L 69.246094 68.789062 C 72.078125 65.957031 75.496094 64.539062 79.496094 64.539062 C 83.496094 64.539062 86.914062 66.042969 89.996094 69.125 C 92.746094 71.871094 94.078125 75.375 94.078125 79.871094 C 93.996094 84.289062 92.496094 87.875 89.414062 90.957031 M 64.667969 24.375 C 64.667969 20.039062 66.082031 16.457031 68.917969 13.625 L 69.25 13.292969 C 72.082031 10.457031 75.5 9.042969 79.5 9.042969 C 83.5 9.042969 86.914062 10.542969 90 13.625 C 92.75 16.375 94.082031 19.875 94.082031 24.375 C 94.082031 28.789062 92.582031 32.375 89.5 35.457031 C 86.667969 38.289062 83.417969 39.707031 79.5 39.707031 C 75.582031 39.707031 72.164062 38.121094 69 34.871094 C 66 31.953125 64.664062 28.539062 64.664062 24.371094 M 33.914062 35.371094 C 31.082031 38.203125 27.832031 39.621094 23.914062 39.621094 C 20.082031 39.621094 16.582031 38.035156 13.414062 34.785156 C 10.582031 31.953125 9.164062 28.535156 9.164062 24.285156 C 9.164062 19.953125 10.582031 16.453125 13.414062 13.535156 L 13.746094 13.203125 C 16.582031 10.371094 20 8.953125 23.996094 8.953125 C 27.996094 8.953125 31.414062 10.453125 34.496094 13.535156 C 37.246094 16.285156 38.582031 19.785156 38.582031 24.285156 C 38.496094 28.699219 36.996094 32.285156 33.914062 35.367188 M 83.933594 56.207031 L 83.933594 47.792969 C 88.597656 46.957031 92.765625 44.792969 96.347656 41.289062 C 100.933594 36.875 103.265625 31.121094 103.265625 24.289062 C 103.265625 17.457031 101.019531 11.707031 96.347656 7.125 C 91.75 2.542969 86.082031 0.210938 79.417969 0.210938 C 72.75 0.210938 67.085938 2.542969 62.417969 7.210938 C 58.917969 10.710938 56.667969 14.878906 55.835938 19.546875 L 47.414062 19.546875 C 46.582031 14.710938 44.417969 10.546875 40.914062 7.042969 C 36.332031 2.457031 30.667969 0.125 24 0.125 C 17.332031 0.125 11.667969 2.457031 7 7.125 C 2.332031 11.792969 0 17.542969 0 24.125 C 0 27.265625 0.582031 30.292969 1.75 33.207031 C 3 36.375 4.75 39.042969 6.917969 41.042969 C 11.753906 45.625 17.5 47.960938 24.082031 47.960938 C 30.667969 47.960938 36.332031 45.625 41 41.042969 C 44.5 37.625 46.664062 33.457031 47.5 28.625 L 55.917969 28.625 C 56.25 30.210938 56.667969 31.710938 57.25 33.207031 C 58.5 36.375 60.25 39.042969 62.417969 41.042969 C 66 44.460938 70.167969 46.625 74.832031 47.460938 L 74.832031 55.960938 C 70.167969 56.875 66.085938 59.042969 62.582031 62.542969 C 57.917969 67.207031 55.582031 72.957031 55.582031 79.542969 C 55.582031 82.679688 56.164062 85.710938 57.332031 88.625 C 58.582031 91.792969 60.332031 94.457031 62.496094 96.457031 C 67.332031 101.042969 73.082031 103.375 79.664062 103.375 C 86.164062 103.375 91.914062 101.042969 96.578125 96.457031 C 101.167969 92.042969 103.5 86.292969 103.5 79.457031 C 103.5 72.625 101.253906 66.878906 96.582031 62.292969 C 92.832031 59.207031 88.667969 57.042969 83.914062 56.207031"/></g><g clip-path="url(#b)"><path fill="#172026" d="M 103.1875 23.25 C 103.1875 36.085938 92.78125 46.488281 79.949219 46.488281 C 67.113281 46.488281 56.710938 36.085938 56.710938 23.25 C 56.710938 10.414062 67.113281 0.0117188 79.949219 0.0117188 C 92.78125 0.0117188 103.1875 10.414062 103.1875 23.25"/><path transform="matrix(.00285 0 0 -.00285 56.698 46.5)" fill="none" d="M 16300.352042 8152.038602 C 16300.352042 3651.432381 12651.656067 4.106037 8152.419476 4.106037 C 3651.813255 4.106037 4.486911 3651.432381 4.486911 8152.038602 C 4.486911 12652.644823 3651.813255 16299.971167 8152.419476 16299.971167 C 12651.656067 16299.971167 16300.352042 12652.644823 16300.352042 8152.038602 Z M 16300.352042 8152.038602" stroke="#231F20" stroke-width="8.148" stroke-miterlimit="10"/></g><path fill="#EBE9EA" d="M 82.164062 17.8125 C 83.039062 18.6875 83.035156 20.113281 82.160156 20.984375 C 81.28125 21.859375 79.859375 21.855469 78.984375 20.980469 C 78.5625 20.558594 78.332031 19.992188 78.332031 19.394531 C 78.332031 18.792969 78.566406 18.230469 78.992188 17.808594 C 79.867188 16.933594 81.289062 16.9375 82.164062 17.8125"/><path fill="#EBE9EA" d="M 82.5625 21.390625 C 83.664062 20.292969 83.664062 18.507812 82.570312 17.410156 C 82.039062 16.875 81.332031 16.582031 80.578125 16.582031 C 80.578125 16.582031 80.578125 16.582031 80.574219 16.582031 C 79.824219 16.582031 79.117188 16.871094 78.585938 17.402344 C 78.054688 17.933594 77.761719 18.640625 77.757812 19.394531 C 77.757812 19.394531 77.757812 19.394531 77.757812 19.398438 C 77.757812 20.148438 78.050781 20.851562 78.582031 21.386719 C 79.128906 21.9375 79.851562 22.210938 80.574219 22.210938 C 81.292969 22.210938 82.015625 21.9375 82.5625 21.390625 Z M 85.914062 18.976562 L 85.914062 19.832031 L 84.972656 19.828125 C 84.832031 19.828125 84.714844 19.929688 84.691406 20.070312 C 84.585938 20.707031 84.332031 21.320312 83.953125 21.839844 C 83.871094 21.957031 83.882812 22.113281 83.984375 22.210938 L 84.648438 22.878906 L 84.042969 23.480469 L 83.378906 22.8125 C 83.28125 22.714844 83.125 22.703125 83.011719 22.785156 C 82.488281 23.160156 81.875 23.414062 81.234375 23.515625 C 81.097656 23.539062 80.996094 23.65625 80.996094 23.796875 L 80.992188 24.738281 L 80.140625 24.734375 L 80.140625 23.796875 C 80.144531 23.65625 80.039062 23.535156 79.902344 23.511719 C 79.265625 23.410156 78.652344 23.15625 78.128906 22.777344 C 78.015625 22.695312 77.859375 22.707031 77.761719 22.804688 L 77.09375 23.46875 L 76.492188 22.867188 L 77.15625 22.203125 C 77.257812 22.101562 77.269531 21.945312 77.1875 21.832031 C 76.8125 21.308594 76.558594 20.695312 76.457031 20.058594 C 76.433594 19.917969 76.316406 19.816406 76.175781 19.816406 L 75.234375 19.816406 L 75.234375 18.964844 L 76.175781 18.964844 C 76.316406 18.964844 76.4375 18.863281 76.457031 18.722656 C 76.5625 18.085938 76.816406 17.472656 77.195312 16.953125 C 77.277344 16.839844 77.265625 16.683594 77.167969 16.582031 L 76.503906 15.917969 L 77.105469 15.316406 L 77.769531 15.980469 C 77.867188 16.078125 78.027344 16.09375 78.140625 16.011719 C 78.664062 15.632812 79.277344 15.378906 79.914062 15.277344 C 80.050781 15.257812 80.15625 15.136719 80.15625 14.996094 L 80.15625 14.054688 L 81.007812 14.058594 L 81.007812 14.996094 C 81.007812 15.136719 81.109375 15.257812 81.246094 15.28125 C 81.886719 15.382812 82.5 15.640625 83.019531 16.015625 C 83.132812 16.097656 83.289062 16.085938 83.390625 15.988281 L 84.054688 15.324219 L 84.65625 15.929688 L 83.992188 16.589844 C 83.890625 16.691406 83.878906 16.847656 83.960938 16.960938 C 84.339844 17.484375 84.589844 18.097656 84.691406 18.734375 C 84.714844 18.875 84.835938 18.976562 84.976562 18.976562 L 85.914062 18.976562"/><path fill="#EBE9EA" d="M 86.488281 18.691406 C 86.488281 18.617188 86.457031 18.542969 86.402344 18.492188 C 86.351562 18.4375 86.277344 18.40625 86.203125 18.40625 L 85.214844 18.40625 C 85.09375 17.847656 84.871094 17.308594 84.5625 16.828125 L 85.261719 16.132812 C 85.375 16.019531 85.375 15.839844 85.265625 15.726562 L 84.257812 14.71875 C 84.203125 14.664062 84.132812 14.632812 84.054688 14.632812 C 83.980469 14.632812 83.90625 14.664062 83.855469 14.71875 L 83.152344 15.414062 C 82.675781 15.105469 82.136719 14.882812 81.578125 14.761719 L 81.582031 13.773438 C 81.582031 13.613281 81.453125 13.488281 81.296875 13.484375 L 79.871094 13.484375 C 79.792969 13.484375 79.722656 13.515625 79.667969 13.566406 C 79.613281 13.621094 79.585938 13.695312 79.585938 13.769531 L 79.582031 14.757812 C 79.023438 14.878906 78.488281 15.097656 78.007812 15.410156 L 77.308594 14.707031 C 77.199219 14.597656 77.015625 14.597656 76.90625 14.707031 L 75.894531 15.714844 C 75.785156 15.824219 75.785156 16.007812 75.894531 16.117188 L 76.59375 16.816406 C 76.285156 17.296875 76.0625 17.832031 75.941406 18.390625 L 74.949219 18.390625 C 74.792969 18.390625 74.664062 18.519531 74.664062 18.675781 L 74.660156 20.101562 C 74.660156 20.175781 74.691406 20.25 74.746094 20.304688 C 74.800781 20.355469 74.871094 20.386719 74.949219 20.386719 L 75.9375 20.390625 C 76.054688 20.949219 76.277344 21.484375 76.585938 21.964844 L 75.886719 22.664062 C 75.832031 22.714844 75.800781 22.789062 75.800781 22.863281 C 75.800781 22.941406 75.832031 23.011719 75.886719 23.066406 L 76.890625 24.074219 C 77.003906 24.1875 77.183594 24.1875 77.296875 24.074219 L 77.996094 23.378906 C 78.476562 23.6875 79.011719 23.910156 79.570312 24.03125 L 79.570312 25.019531 C 79.570312 25.097656 79.597656 25.171875 79.652344 25.222656 C 79.707031 25.277344 79.777344 25.308594 79.855469 25.308594 L 81.277344 25.308594 C 81.277344 25.308594 81.277344 25.308594 81.28125 25.308594 C 81.4375 25.308594 81.566406 25.183594 81.566406 25.023438 L 81.566406 24.035156 C 82.125 23.914062 82.664062 23.695312 83.140625 23.386719 L 83.839844 24.085938 C 83.894531 24.140625 83.964844 24.167969 84.042969 24.167969 C 84.117188 24.167969 84.191406 24.140625 84.246094 24.085938 L 85.253906 23.078125 C 85.367188 22.96875 85.367188 22.789062 85.253906 22.675781 L 84.554688 21.976562 C 84.867188 21.496094 85.089844 20.960938 85.210938 20.402344 L 86.199219 20.402344 C 86.359375 20.402344 86.484375 20.273438 86.484375 20.117188 Z M 80.445312 10.46875 C 85.734375 10.46875 90.035156 14.773438 90.035156 20.058594 C 90.035156 22.800781 88.859375 25.414062 86.8125 27.234375 C 86.75 27.289062 86.714844 27.367188 86.714844 27.449219 L 86.714844 36.496094 L 78.003906 36.496094 L 78.003906 31.601562 C 78.003906 31.445312 77.875 31.316406 77.71875 31.316406 L 74.003906 31.316406 C 73.261719 31.316406 72.65625 30.710938 72.65625 29.96875 L 72.65625 26.351562 C 72.65625 26.195312 72.527344 26.066406 72.371094 26.066406 L 69.859375 26.066406 C 69.859375 23.929688 70.566406 20.152344 70.574219 20.113281 C 71.429688 15.664062 74.523438 10.46875 80.445312 10.46875"/><g clip-path="url(#c)"><path fill="#172026" d="M 22.410156 54.773438 L 21.429688 56.082031 L 22.828125 57.128906 C 12.199219 57.792969 3.859375 65.253906 2.296875 75.753906 L 3.914062 75.996094 C 5.367188 66.214844 12.796875 59.476562 22.644531 58.769531 L 21.429688 59.679688 L 22.410156 60.988281 L 25.683594 58.535156 C 25.785156 58.457031 25.867188 58.359375 25.925781 58.246094 C 25.980469 58.128906 26.011719 58.007812 26.011719 57.878906 C 26.011719 57.75 25.980469 57.628906 25.925781 57.515625 C 25.867188 57.398438 25.785156 57.304688 25.683594 57.226562 Z M 22.410156 54.773438"/></g><path fill="#172026" d="M 28.464844 64.421875 C 27.640625 64.425781 26.867188 64.621094 26.144531 65.007812 C 25.417969 65.398438 24.828125 65.9375 24.375 66.625 C 24.082031 66.183594 23.730469 65.800781 23.316406 65.476562 C 22.902344 65.152344 22.445312 64.898438 21.953125 64.722656 C 21.457031 64.542969 20.945312 64.445312 20.417969 64.429688 C 19.890625 64.417969 19.375 64.484375 18.871094 64.636719 C 18.367188 64.789062 17.898438 65.015625 17.46875 65.320312 C 17.035156 65.621094 16.664062 65.984375 16.347656 66.40625 C 16.035156 66.828125 15.792969 67.289062 15.628906 67.789062 C 15.460938 68.292969 15.378906 68.804688 15.378906 69.332031 C 15.378906 69.425781 15.378906 69.519531 15.386719 69.617188 C 14.90625 69.785156 14.464844 70.019531 14.058594 70.324219 C 13.652344 70.632812 13.300781 70.992188 13.007812 71.40625 C 12.714844 71.820312 12.492188 72.269531 12.335938 72.75 C 12.183594 73.234375 12.105469 73.730469 12.105469 74.238281 C 12.105469 74.335938 12.105469 74.429688 12.113281 74.523438 C 11.636719 74.691406 11.191406 74.929688 10.789062 75.234375 C 10.382812 75.539062 10.03125 75.898438 9.738281 76.3125 C 9.445312 76.726562 9.222656 77.175781 9.066406 77.660156 C 8.914062 78.144531 8.835938 78.636719 8.835938 79.144531 C 8.835938 79.652344 8.914062 80.148438 9.066406 80.632812 C 9.222656 81.117188 9.445312 81.566406 9.738281 81.980469 C 10.03125 82.394531 10.382812 82.753906 10.789062 83.058594 C 11.191406 83.363281 11.636719 83.601562 12.113281 83.765625 C 12.105469 83.863281 12.105469 83.960938 12.105469 84.054688 C 12.105469 84.5625 12.183594 85.058594 12.335938 85.542969 C 12.492188 86.027344 12.714844 86.476562 13.007812 86.890625 C 13.300781 87.304688 13.652344 87.664062 14.058594 87.96875 C 14.464844 88.273438 14.90625 88.507812 15.386719 88.675781 C 15.378906 88.773438 15.378906 88.867188 15.378906 88.960938 C 15.378906 89.488281 15.460938 90.003906 15.628906 90.503906 C 15.792969 91.003906 16.035156 91.464844 16.347656 91.886719 C 16.664062 92.308594 17.035156 92.671875 17.46875 92.976562 C 17.898438 93.277344 18.367188 93.503906 18.871094 93.65625 C 19.375 93.808594 19.890625 93.878906 20.417969 93.863281 C 20.945312 93.847656 21.457031 93.753906 21.953125 93.574219 C 22.445312 93.394531 22.902344 93.140625 23.316406 92.816406 C 23.730469 92.492188 24.082031 92.109375 24.375 91.667969 C 24.667969 92.109375 25.019531 92.492188 25.433594 92.816406 C 25.847656 93.140625 26.304688 93.394531 26.796875 93.574219 C 27.292969 93.753906 27.804688 93.847656 28.332031 93.863281 C 28.859375 93.878906 29.375 93.808594 29.878906 93.65625 C 30.382812 93.503906 30.851562 93.277344 31.28125 92.976562 C 31.714844 92.671875 32.085938 92.308594 32.402344 91.886719 C 32.714844 91.464844 32.957031 91.003906 33.121094 90.503906 C 33.289062 90.003906 33.371094 89.488281 33.371094 88.960938 C 33.371094 88.867188 33.371094 88.773438 33.363281 88.675781 C 33.84375 88.507812 34.285156 88.273438 34.691406 87.96875 C 35.097656 87.664062 35.449219 87.304688 35.742188 86.890625 C 36.035156 86.476562 36.257812 86.027344 36.414062 85.542969 C 36.566406 85.058594 36.644531 84.5625 36.644531 84.054688 C 36.644531 83.960938 36.644531 83.863281 36.636719 83.769531 C 37.113281 83.601562 37.558594 83.363281 37.960938 83.058594 C 38.367188 82.753906 38.71875 82.394531 39.011719 81.980469 C 39.304688 81.566406 39.527344 81.117188 39.683594 80.632812 C 39.835938 80.152344 39.914062 79.65625 39.914062 79.148438 C 39.914062 78.640625 39.835938 78.144531 39.683594 77.660156 C 39.527344 77.175781 39.304688 76.726562 39.011719 76.316406 C 38.71875 75.902344 38.367188 75.539062 37.960938 75.234375 C 37.558594 74.929688 37.113281 74.695312 36.636719 74.527344 C 36.644531 74.429688 36.644531 74.335938 36.644531 74.238281 C 36.644531 73.730469 36.566406 73.234375 36.414062 72.75 C 36.257812 72.269531 36.035156 71.820312 35.742188 71.40625 C 35.449219 70.992188 35.097656 70.632812 34.691406 70.324219 C 34.285156 70.019531 33.84375 69.785156 33.363281 69.617188 C 33.371094 69.519531 33.371094 69.425781 33.371094 69.332031 C 33.371094 69.007812 33.339844 68.691406 33.277344 68.375 C 33.214844 68.058594 33.121094 67.75 32.996094 67.453125 C 32.875 67.15625 32.722656 66.875 32.542969 66.605469 C 32.363281 66.339844 32.160156 66.089844 31.933594 65.863281 C 31.707031 65.636719 31.457031 65.429688 31.191406 65.253906 C 30.921875 65.074219 30.640625 64.921875 30.34375 64.796875 C 30.042969 64.675781 29.738281 64.582031 29.421875 64.519531 C 29.105469 64.457031 28.785156 64.425781 28.464844 64.421875 Z M 23.558594 76.738281 C 20.75 77.015625 18.648438 78.6875 18.648438 80.78125 L 20.285156 80.78125 C 20.285156 79.621094 21.714844 78.617188 23.558594 78.382812 L 23.558594 88.960938 C 23.558594 89.191406 23.535156 89.421875 23.488281 89.648438 C 23.441406 89.871094 23.371094 90.089844 23.277344 90.300781 C 23.183594 90.511719 23.070312 90.710938 22.933594 90.898438 C 22.796875 91.085938 22.644531 91.253906 22.472656 91.410156 C 22.300781 91.5625 22.117188 91.699219 21.917969 91.8125 C 21.71875 91.929688 21.507812 92.019531 21.289062 92.089844 C 21.070312 92.160156 20.84375 92.207031 20.613281 92.230469 C 20.386719 92.253906 20.15625 92.253906 19.925781 92.230469 C 19.699219 92.203125 19.472656 92.15625 19.253906 92.082031 C 19.035156 92.007812 18.828125 91.914062 18.628906 91.796875 C 18.429688 91.679688 18.246094 91.546875 18.074219 91.390625 C 17.90625 91.234375 17.753906 91.0625 17.621094 90.875 C 17.484375 90.6875 17.375 90.484375 17.28125 90.273438 C 17.191406 90.0625 17.121094 89.84375 17.078125 89.617188 C 17.03125 89.390625 17.011719 89.164062 17.015625 88.933594 C 17.015625 88.703125 17.042969 88.476562 17.09375 88.25 C 17.144531 88.023438 17.105469 87.8125 16.976562 87.617188 C 16.960938 87.59375 16.933594 87.578125 16.914062 87.558594 C 17.488281 86.734375 17.796875 85.820312 17.832031 84.816406 C 17.855469 83.96875 17.566406 83.246094 16.964844 82.648438 L 15.828125 83.824219 C 16.09375 84.101562 16.21875 84.433594 16.195312 84.816406 C 16.148438 85.59375 15.882812 86.28125 15.394531 86.890625 C 15.089844 86.71875 14.820312 86.503906 14.582031 86.246094 C 14.347656 85.988281 14.160156 85.699219 14.015625 85.378906 C 13.875 85.058594 13.789062 84.722656 13.753906 84.375 C 13.722656 84.027344 13.746094 83.683594 13.824219 83.34375 C 13.875 83.117188 13.835938 82.90625 13.707031 82.710938 C 13.578125 82.519531 13.398438 82.402344 13.171875 82.359375 C 12.792969 82.292969 12.4375 82.164062 12.105469 81.972656 C 11.773438 81.78125 11.484375 81.539062 11.238281 81.246094 C 10.992188 80.953125 10.800781 80.625 10.671875 80.265625 C 10.539062 79.902344 10.472656 79.53125 10.472656 79.148438 C 10.472656 78.765625 10.539062 78.390625 10.671875 78.03125 C 10.800781 77.671875 10.992188 77.34375 11.238281 77.050781 C 11.484375 76.757812 11.773438 76.511719 12.105469 76.320312 C 12.4375 76.128906 12.792969 76 13.171875 75.933594 C 13.179688 75.933594 13.191406 75.925781 13.199219 75.921875 C 14.402344 76.160156 15.378906 77.90625 15.378906 79.964844 L 17.011719 79.964844 C 17.011719 77.15625 15.636719 74.878906 13.753906 74.351562 C 13.753906 74.316406 13.742188 74.273438 13.742188 74.238281 C 13.742188 73.855469 13.808594 73.484375 13.9375 73.121094 C 14.070312 72.761719 14.257812 72.433594 14.507812 72.140625 C 14.753906 71.847656 15.042969 71.605469 15.375 71.414062 C 15.707031 71.222656 16.0625 71.09375 16.441406 71.027344 C 16.449219 71.027344 16.457031 71.015625 16.46875 71.015625 C 17.675781 71.253906 18.648438 72.996094 18.648438 75.058594 L 20.285156 75.058594 C 20.285156 72.246094 18.910156 69.96875 17.027344 69.445312 C 17.027344 69.410156 17.011719 69.367188 17.011719 69.332031 C 17.011719 68.898438 17.097656 68.480469 17.261719 68.078125 C 17.429688 67.679688 17.664062 67.324219 17.972656 67.019531 C 18.277344 66.710938 18.632812 66.476562 19.03125 66.308594 C 19.433594 66.144531 19.851562 66.058594 20.285156 66.058594 C 20.71875 66.058594 21.136719 66.144531 21.539062 66.308594 C 21.9375 66.476562 22.292969 66.710938 22.597656 67.019531 C 22.90625 67.324219 23.140625 67.679688 23.308594 68.078125 C 23.472656 68.480469 23.558594 68.898438 23.558594 69.332031 Z M 35.007812 74.238281 C 35.007812 74.273438 34.996094 74.316406 34.996094 74.351562 C 33.113281 74.878906 31.738281 77.15625 31.738281 79.964844 L 33.371094 79.964844 C 33.371094 77.90625 34.347656 76.160156 35.550781 75.921875 C 35.5625 75.921875 35.570312 75.933594 35.582031 75.933594 C 35.957031 76 36.3125 76.128906 36.644531 76.320312 C 36.976562 76.511719 37.269531 76.753906 37.515625 77.050781 C 37.761719 77.34375 37.949219 77.671875 38.082031 78.03125 C 38.210938 78.390625 38.277344 78.761719 38.277344 79.148438 C 38.277344 79.53125 38.210938 79.902344 38.082031 80.261719 C 37.949219 80.625 37.761719 80.949219 37.515625 81.246094 C 37.269531 81.539062 36.976562 81.78125 36.644531 81.972656 C 36.3125 82.164062 35.957031 82.292969 35.582031 82.359375 C 35.351562 82.402344 35.171875 82.519531 35.042969 82.710938 C 34.914062 82.90625 34.875 83.113281 34.925781 83.339844 C 35.003906 83.683594 35.027344 84.027344 34.996094 84.375 C 34.964844 84.722656 34.875 85.058594 34.734375 85.378906 C 34.59375 85.699219 34.402344 85.988281 34.167969 86.246094 C 33.933594 86.503906 33.660156 86.71875 33.355469 86.886719 C 32.867188 86.28125 32.601562 85.59375 32.554688 84.816406 C 32.53125 84.433594 32.65625 84.101562 32.921875 83.824219 L 31.785156 82.648438 C 31.183594 83.246094 30.894531 83.96875 30.917969 84.816406 C 30.953125 85.820312 31.257812 86.734375 31.832031 87.558594 C 31.8125 87.578125 31.789062 87.59375 31.769531 87.617188 C 31.640625 87.8125 31.601562 88.023438 31.652344 88.25 C 31.703125 88.476562 31.730469 88.703125 31.734375 88.933594 C 31.738281 89.164062 31.71875 89.394531 31.675781 89.621094 C 31.628906 89.847656 31.5625 90.066406 31.472656 90.277344 C 31.378906 90.492188 31.265625 90.691406 31.132812 90.878906 C 31 91.066406 30.847656 91.242188 30.679688 91.398438 C 30.507812 91.554688 30.324219 91.691406 30.125 91.808594 C 29.925781 91.925781 29.714844 92.019531 29.496094 92.09375 C 29.277344 92.164062 29.054688 92.214844 28.824219 92.238281 C 28.59375 92.265625 28.363281 92.265625 28.132812 92.242188 C 27.90625 92.21875 27.679688 92.171875 27.460938 92.101562 C 27.238281 92.03125 27.03125 91.9375 26.828125 91.820312 C 26.628906 91.707031 26.445312 91.570312 26.273438 91.414062 C 26.101562 91.261719 25.949219 91.089844 25.8125 90.902344 C 25.675781 90.714844 25.5625 90.515625 25.46875 90.304688 C 25.375 90.09375 25.308594 89.875 25.261719 89.648438 C 25.214844 89.421875 25.191406 89.195312 25.191406 88.960938 L 25.191406 85.578125 C 27.082031 85.0625 28.464844 82.78125 28.464844 79.964844 L 26.828125 79.964844 C 26.828125 81.703125 26.132812 83.21875 25.191406 83.792969 L 25.191406 69.332031 C 25.191406 68.898438 25.277344 68.480469 25.441406 68.078125 C 25.609375 67.679688 25.84375 67.324219 26.152344 67.019531 C 26.457031 66.710938 26.8125 66.476562 27.210938 66.308594 C 27.613281 66.144531 28.03125 66.058594 28.464844 66.058594 C 28.898438 66.058594 29.316406 66.144531 29.71875 66.308594 C 30.117188 66.476562 30.472656 66.710938 30.777344 67.019531 C 31.085938 67.324219 31.320312 67.679688 31.488281 68.078125 C 31.652344 68.480469 31.738281 68.898438 31.738281 69.332031 C 31.738281 69.367188 31.722656 69.410156 31.722656 69.445312 C 29.839844 69.96875 28.464844 72.246094 28.464844 75.058594 L 30.101562 75.058594 C 30.101562 72.996094 31.074219 71.253906 32.28125 71.015625 C 32.289062 71.015625 32.296875 71.023438 32.308594 71.027344 C 32.6875 71.09375 33.042969 71.222656 33.375 71.414062 C 33.707031 71.605469 33.996094 71.847656 34.242188 72.140625 C 34.492188 72.433594 34.679688 72.761719 34.8125 73.121094 C 34.941406 73.484375 35.007812 73.855469 35.007812 74.238281 Z M 35.007812 74.238281"/><g clip-path="url(#d)"><path fill="#172026" d="M 26.105469 99.527344 L 27.320312 98.613281 L 26.339844 97.304688 L 23.066406 99.757812 C 22.964844 99.835938 22.882812 99.933594 22.824219 100.046875 C 22.769531 100.164062 22.738281 100.285156 22.738281 100.414062 C 22.738281 100.542969 22.769531 100.664062 22.824219 100.78125 C 22.882812 100.894531 22.964844 100.992188 23.066406 101.066406 L 26.339844 103.523438 L 27.320312 102.214844 L 25.921875 101.167969 C 36.550781 100.5 44.890625 93.039062 46.453125 82.539062 L 44.835938 82.300781 C 43.382812 92.078125 35.953125 98.816406 26.105469 99.527344 Z M 26.105469 99.527344"/></g><g clip-path="url(#e)"><path fill="#172026" d="M 46.394531 77.597656 C 45.726562 66.96875 38.265625 58.628906 27.765625 57.066406 L 27.527344 58.6875 C 37.308594 60.136719 44.042969 67.566406 44.753906 77.417969 L 43.84375 76.203125 L 42.535156 77.183594 L 44.988281 80.457031 C 45.066406 80.558594 45.160156 80.640625 45.277344 80.695312 C 45.390625 80.753906 45.511719 80.78125 45.640625 80.78125 C 45.769531 80.78125 45.890625 80.753906 46.007812 80.695312 C 46.121094 80.640625 46.21875 80.558594 46.296875 80.457031 L 48.75 77.183594 L 47.441406 76.203125 Z M 46.394531 77.597656"/></g><path fill="#172026" d="M 3.996094 80.875 L 4.90625 82.089844 L 6.214844 81.109375 L 3.761719 77.839844 C 3.683594 77.742188 3.585938 77.664062 3.46875 77.609375 C 3.355469 77.554688 3.234375 77.527344 3.109375 77.527344 C 2.980469 77.527344 2.859375 77.554688 2.746094 77.609375 C 2.632812 77.664062 2.535156 77.742188 2.453125 77.839844 L 0 81.109375 L 1.308594 82.089844 L 2.355469 80.695312 C 3.023438 91.324219 10.484375 99.664062 20.984375 101.226562 L 21.222656 99.609375 C 11.441406 98.152344 4.707031 90.722656 3.996094 80.875 Z M 3.996094 80.875"/></svg>