<svg xmlns="http://www.w3.org/2000/svg" width="375" viewBox="0 0 375 150" height="150" version="1.0"><defs><clipPath id="a"><path d="M 4.5 23.214844 L 108 23.214844 L 108 126.714844 L 4.5 126.714844 Z M 4.5 23.214844"/></clipPath><clipPath id="b"><path d="M 61.238281 23.214844 L 107.738281 23.214844 L 107.738281 69.714844 L 61.238281 69.714844 Z M 61.238281 23.214844"/></clipPath><clipPath id="c"><path d="M 6 78.023438 L 31 78.023438 L 31 100 L 6 100 Z M 6 78.023438"/></clipPath><clipPath id="d"><path d="M 27 105 L 51 105 L 51 126.773438 L 27 126.773438 Z M 27 105"/></clipPath><clipPath id="e"><path d="M 32 80 L 53.25 80 L 53.25 105 L 32 105 Z M 32 80"/></clipPath><clipPath id="f"><path d="M 4.5 100 L 26 100 L 26 125 L 4.5 125 Z M 4.5 100"/></clipPath></defs><g clip-path="url(#a)"><path fill="#172026" d="M 93.914062 114.171875 C 91.082031 117.007812 87.832031 118.421875 83.914062 118.421875 C 79.996094 118.421875 76.578125 116.839844 73.414062 113.589844 C 70.578125 110.753906 69.164062 107.335938 69.164062 103.085938 C 69.164062 98.753906 70.578125 95.171875 73.414062 92.339844 L 73.746094 92.003906 C 76.578125 89.171875 79.996094 87.753906 83.996094 87.753906 C 87.996094 87.753906 91.414062 89.253906 94.496094 92.339844 C 97.246094 95.085938 98.578125 98.589844 98.578125 103.085938 C 98.496094 107.503906 96.996094 111.085938 93.914062 114.171875 M 69.167969 47.589844 C 69.167969 43.253906 70.582031 39.671875 73.417969 36.839844 L 73.75 36.507812 C 76.582031 33.671875 80 32.257812 84 32.257812 C 88 32.257812 91.414062 33.757812 94.5 36.839844 C 97.25 39.589844 98.582031 43.089844 98.582031 47.589844 C 98.582031 52.003906 97.082031 55.589844 94 58.671875 C 91.167969 61.503906 87.917969 62.921875 84 62.921875 C 80.082031 62.921875 76.664062 61.335938 73.5 58.085938 C 70.5 55.167969 69.164062 51.753906 69.164062 47.585938 M 38.414062 58.585938 C 35.582031 61.417969 32.332031 62.835938 28.414062 62.835938 C 24.582031 62.835938 21.082031 61.25 17.914062 58 C 15.082031 55.167969 13.664062 51.75 13.664062 47.5 C 13.664062 43.164062 15.082031 39.667969 17.914062 36.75 L 18.246094 36.417969 C 21.082031 33.585938 24.5 32.167969 28.496094 32.167969 C 32.496094 32.167969 35.914062 33.667969 38.996094 36.75 C 41.746094 39.5 43.082031 43 43.082031 47.5 C 42.996094 51.914062 41.496094 55.5 38.414062 58.582031 M 88.433594 79.421875 L 88.433594 71.003906 C 93.097656 70.171875 97.265625 68.007812 100.847656 64.503906 C 105.433594 60.089844 107.765625 54.335938 107.765625 47.503906 C 107.765625 40.671875 105.519531 34.921875 100.847656 30.339844 C 96.25 25.757812 90.582031 23.425781 83.917969 23.425781 C 77.25 23.425781 71.585938 25.757812 66.917969 30.425781 C 63.417969 33.925781 61.167969 38.09375 60.335938 42.761719 L 51.914062 42.761719 C 51.082031 37.925781 48.917969 33.761719 45.414062 30.257812 C 40.832031 25.671875 35.167969 23.339844 28.5 23.339844 C 21.832031 23.339844 16.167969 25.671875 11.5 30.339844 C 6.832031 35.007812 4.5 40.757812 4.5 47.339844 C 4.5 50.480469 5.082031 53.507812 6.25 56.421875 C 7.5 59.589844 9.25 62.257812 11.417969 64.257812 C 16.253906 68.839844 22 71.175781 28.582031 71.175781 C 35.167969 71.175781 40.832031 68.839844 45.5 64.257812 C 49 60.839844 51.164062 56.671875 52 51.839844 L 60.417969 51.839844 C 60.75 53.425781 61.167969 54.925781 61.75 56.421875 C 63 59.589844 64.75 62.257812 66.917969 64.257812 C 70.5 67.675781 74.667969 69.839844 79.332031 70.675781 L 79.332031 79.175781 C 74.667969 80.089844 70.585938 82.257812 67.082031 85.757812 C 62.417969 90.421875 60.082031 96.171875 60.082031 102.757812 C 60.082031 105.894531 60.664062 108.925781 61.832031 111.839844 C 63.082031 115.007812 64.832031 117.671875 66.996094 119.671875 C 71.832031 124.257812 77.582031 126.589844 84.164062 126.589844 C 90.664062 126.589844 96.414062 124.257812 101.078125 119.671875 C 105.667969 115.257812 108 109.507812 108 102.671875 C 108 95.839844 105.753906 90.09375 101.082031 85.507812 C 97.332031 82.421875 93.167969 80.257812 88.414062 79.421875"/></g><g clip-path="url(#b)"><path fill="#172026" d="M 107.726562 46.464844 C 107.726562 59.300781 97.320312 69.703125 84.488281 69.703125 C 71.652344 69.703125 61.25 59.300781 61.25 46.464844 C 61.25 33.628906 71.652344 23.226562 84.488281 23.226562 C 97.320312 23.226562 107.726562 33.628906 107.726562 46.464844"/><path transform="matrix(.00285 0 0 -.00285 61.237 69.715)" fill="none" d="M 16300.502388 8152.004991 C 16300.502388 3651.398729 12651.80638 4.072351 8152.569748 4.072351 C 3651.963486 4.072351 4.637108 3651.398729 4.637108 8152.004991 C 4.637108 12652.611253 3651.963486 16299.937631 8152.569748 16299.937631 C 12651.80638 16299.937631 16300.502388 12652.611253 16300.502388 8152.004991 Z M 16300.502388 8152.004991" stroke="#231F20" stroke-width="8.148" stroke-miterlimit="10"/></g><path fill="#EBE9EA" d="M 86.703125 41.027344 C 87.574219 41.902344 87.574219 43.328125 86.699219 44.199219 C 85.820312 45.074219 84.398438 45.070312 83.523438 44.195312 C 83.101562 43.769531 82.871094 43.207031 82.871094 42.609375 C 82.871094 42.007812 83.105469 41.445312 83.53125 41.023438 C 84.40625 40.148438 85.828125 40.152344 86.703125 41.027344"/><path fill="#EBE9EA" d="M 87.101562 44.605469 C 88.199219 43.507812 88.203125 41.722656 87.105469 40.625 C 86.574219 40.089844 85.871094 39.796875 85.117188 39.796875 C 85.117188 39.796875 85.113281 39.796875 85.113281 39.796875 C 84.363281 39.796875 83.65625 40.085938 83.125 40.617188 C 82.59375 41.148438 82.300781 41.855469 82.296875 42.609375 C 82.296875 42.609375 82.296875 42.609375 82.296875 42.613281 C 82.296875 43.363281 82.589844 44.066406 83.121094 44.601562 C 83.667969 45.152344 84.390625 45.425781 85.113281 45.425781 C 85.832031 45.425781 86.554688 45.152344 87.101562 44.605469 Z M 90.453125 42.191406 L 90.453125 43.046875 L 89.511719 43.042969 C 89.371094 43.042969 89.253906 43.144531 89.230469 43.285156 C 89.125 43.921875 88.871094 44.535156 88.492188 45.054688 C 88.410156 45.171875 88.421875 45.328125 88.523438 45.425781 L 89.1875 46.089844 L 88.582031 46.695312 L 87.917969 46.027344 C 87.820312 45.929688 87.664062 45.917969 87.550781 46 C 87.027344 46.375 86.414062 46.628906 85.773438 46.730469 C 85.636719 46.75 85.535156 46.871094 85.535156 47.011719 L 85.53125 47.953125 L 84.679688 47.949219 L 84.679688 47.011719 C 84.679688 46.871094 84.578125 46.75 84.441406 46.726562 C 83.804688 46.625 83.191406 46.371094 82.667969 45.992188 C 82.554688 45.910156 82.398438 45.921875 82.300781 46.019531 L 81.632812 46.683594 L 81.03125 46.082031 L 81.695312 45.417969 C 81.796875 45.316406 81.808594 45.160156 81.726562 45.046875 C 81.351562 44.523438 81.097656 43.910156 80.996094 43.273438 C 80.972656 43.132812 80.855469 43.03125 80.714844 43.03125 L 79.773438 43.03125 L 79.773438 42.175781 L 80.714844 42.179688 C 80.855469 42.179688 80.976562 42.078125 80.996094 41.9375 C 81.101562 41.300781 81.355469 40.6875 81.734375 40.167969 C 81.816406 40.054688 81.804688 39.894531 81.703125 39.796875 L 81.042969 39.132812 L 81.644531 38.527344 L 82.308594 39.195312 C 82.40625 39.292969 82.566406 39.308594 82.679688 39.226562 C 83.199219 38.847656 83.8125 38.59375 84.453125 38.492188 C 84.589844 38.472656 84.691406 38.351562 84.695312 38.210938 L 84.695312 37.269531 L 85.546875 37.273438 L 85.546875 38.210938 C 85.546875 38.351562 85.648438 38.472656 85.785156 38.496094 C 86.425781 38.597656 87.035156 38.855469 87.558594 39.230469 C 87.671875 39.3125 87.828125 39.300781 87.929688 39.203125 L 88.59375 38.539062 L 89.195312 39.144531 L 88.53125 39.804688 C 88.429688 39.90625 88.417969 40.0625 88.5 40.175781 C 88.878906 40.699219 89.128906 41.3125 89.230469 41.949219 C 89.253906 42.089844 89.375 42.191406 89.515625 42.191406 L 90.453125 42.191406"/><path fill="#EBE9EA" d="M 91.027344 41.90625 C 91.027344 41.832031 90.996094 41.757812 90.941406 41.703125 C 90.890625 41.652344 90.816406 41.621094 90.742188 41.621094 L 89.75 41.621094 C 89.632812 41.0625 89.410156 40.523438 89.101562 40.042969 L 89.800781 39.347656 C 89.914062 39.234375 89.914062 39.054688 89.804688 38.941406 L 88.796875 37.933594 C 88.742188 37.878906 88.671875 37.847656 88.59375 37.847656 C 88.519531 37.847656 88.445312 37.878906 88.390625 37.933594 L 87.691406 38.628906 C 87.214844 38.320312 86.675781 38.097656 86.117188 37.976562 L 86.121094 36.988281 C 86.121094 36.828125 85.992188 36.699219 85.835938 36.699219 L 84.410156 36.699219 C 84.332031 36.699219 84.261719 36.730469 84.207031 36.78125 C 84.152344 36.835938 84.125 36.910156 84.125 36.984375 L 84.121094 37.972656 C 83.5625 38.09375 83.027344 38.3125 82.546875 38.621094 L 81.847656 37.921875 C 81.738281 37.8125 81.554688 37.8125 81.445312 37.921875 L 80.433594 38.929688 C 80.324219 39.039062 80.324219 39.222656 80.433594 39.332031 L 81.132812 40.03125 C 80.820312 40.511719 80.597656 41.046875 80.476562 41.605469 L 79.488281 41.605469 C 79.332031 41.605469 79.203125 41.734375 79.203125 41.890625 L 79.199219 43.316406 C 79.199219 43.390625 79.230469 43.464844 79.285156 43.519531 C 79.335938 43.570312 79.410156 43.601562 79.488281 43.601562 L 80.476562 43.601562 C 80.59375 44.164062 80.816406 44.699219 81.125 45.179688 L 80.425781 45.878906 C 80.371094 45.929688 80.339844 46.003906 80.339844 46.078125 C 80.339844 46.15625 80.371094 46.226562 80.425781 46.28125 L 81.429688 47.289062 C 81.542969 47.402344 81.722656 47.402344 81.835938 47.289062 L 82.535156 46.59375 C 83.015625 46.902344 83.550781 47.125 84.109375 47.246094 L 84.105469 48.234375 C 84.105469 48.3125 84.136719 48.382812 84.191406 48.4375 C 84.246094 48.492188 84.316406 48.523438 84.394531 48.523438 L 85.816406 48.523438 C 85.976562 48.523438 86.105469 48.398438 86.105469 48.238281 L 86.105469 47.25 C 86.664062 47.128906 87.203125 46.910156 87.679688 46.601562 L 88.378906 47.300781 C 88.433594 47.355469 88.503906 47.382812 88.582031 47.382812 C 88.65625 47.382812 88.730469 47.355469 88.785156 47.300781 L 89.792969 46.292969 C 89.90625 46.183594 89.90625 46.003906 89.792969 45.890625 L 89.09375 45.191406 C 89.40625 44.710938 89.628906 44.175781 89.75 43.617188 L 90.738281 43.617188 C 90.894531 43.617188 91.023438 43.488281 91.023438 43.332031 Z M 84.984375 33.683594 C 90.273438 33.683594 94.574219 37.988281 94.574219 43.273438 C 94.574219 46.015625 93.398438 48.628906 91.351562 50.449219 C 91.289062 50.503906 91.253906 50.582031 91.253906 50.664062 L 91.253906 59.710938 L 82.542969 59.710938 L 82.542969 54.816406 C 82.542969 54.660156 82.414062 54.53125 82.257812 54.53125 L 78.542969 54.53125 C 77.800781 54.53125 77.195312 53.925781 77.195312 53.183594 L 77.195312 49.566406 C 77.195312 49.410156 77.066406 49.28125 76.910156 49.28125 L 74.398438 49.28125 C 74.398438 47.144531 75.105469 43.367188 75.113281 43.328125 C 75.964844 38.878906 79.0625 33.683594 84.984375 33.683594"/><g clip-path="url(#c)"><path fill="#172026" d="M 26.910156 78.023438 L 25.929688 79.332031 L 27.328125 80.378906 C 16.699219 81.046875 8.359375 88.507812 6.796875 99.007812 L 8.414062 99.246094 C 9.867188 89.46875 17.296875 82.730469 27.144531 82.019531 L 25.929688 82.933594 L 26.910156 84.242188 L 30.183594 81.785156 C 30.285156 81.710938 30.367188 81.613281 30.425781 81.496094 C 30.480469 81.382812 30.511719 81.261719 30.511719 81.132812 C 30.511719 81.003906 30.480469 80.882812 30.425781 80.765625 C 30.367188 80.652344 30.285156 80.554688 30.183594 80.476562 Z M 26.910156 78.023438"/></g><path fill="#172026" d="M 32.964844 87.675781 C 32.140625 87.675781 31.367188 87.871094 30.644531 88.261719 C 29.917969 88.652344 29.328125 89.191406 28.875 89.875 C 28.582031 89.4375 28.230469 89.054688 27.816406 88.730469 C 27.402344 88.402344 26.945312 88.152344 26.453125 87.972656 C 25.957031 87.792969 25.445312 87.699219 24.917969 87.683594 C 24.390625 87.667969 23.875 87.738281 23.371094 87.890625 C 22.867188 88.042969 22.398438 88.269531 21.96875 88.570312 C 21.535156 88.875 21.164062 89.234375 20.847656 89.660156 C 20.535156 90.082031 20.292969 90.542969 20.128906 91.042969 C 19.960938 91.542969 19.878906 92.058594 19.878906 92.582031 C 19.878906 92.679688 19.878906 92.773438 19.886719 92.867188 C 19.40625 93.035156 18.964844 93.273438 18.558594 93.578125 C 18.152344 93.882812 17.800781 94.242188 17.507812 94.65625 C 17.214844 95.070312 16.992188 95.519531 16.835938 96.003906 C 16.683594 96.488281 16.605469 96.984375 16.605469 97.492188 C 16.605469 97.585938 16.605469 97.679688 16.613281 97.777344 C 16.136719 97.945312 15.691406 98.179688 15.289062 98.484375 C 14.882812 98.792969 14.53125 99.152344 14.238281 99.566406 C 13.945312 99.980469 13.722656 100.429688 13.566406 100.910156 C 13.414062 101.394531 13.335938 101.890625 13.335938 102.398438 C 13.335938 102.90625 13.414062 103.402344 13.566406 103.886719 C 13.722656 104.367188 13.945312 104.816406 14.238281 105.230469 C 14.53125 105.644531 14.882812 106.003906 15.289062 106.308594 C 15.691406 106.617188 16.136719 106.851562 16.613281 107.019531 C 16.605469 107.117188 16.605469 107.210938 16.605469 107.308594 C 16.605469 107.816406 16.683594 108.308594 16.835938 108.792969 C 16.992188 109.277344 17.214844 109.726562 17.507812 110.140625 C 17.800781 110.554688 18.152344 110.914062 18.558594 111.21875 C 18.964844 111.523438 19.40625 111.761719 19.886719 111.929688 C 19.878906 112.023438 19.878906 112.121094 19.878906 112.214844 C 19.878906 112.742188 19.960938 113.253906 20.128906 113.753906 C 20.292969 114.253906 20.535156 114.714844 20.847656 115.140625 C 21.164062 115.5625 21.535156 115.925781 21.96875 116.226562 C 22.398438 116.53125 22.867188 116.757812 23.371094 116.910156 C 23.875 117.058594 24.390625 117.128906 24.917969 117.113281 C 25.445312 117.101562 25.957031 117.003906 26.453125 116.824219 C 26.945312 116.644531 27.402344 116.394531 27.816406 116.070312 C 28.230469 115.742188 28.582031 115.359375 28.875 114.921875 C 29.167969 115.359375 29.519531 115.742188 29.933594 116.070312 C 30.347656 116.394531 30.804688 116.644531 31.296875 116.824219 C 31.792969 117.003906 32.304688 117.101562 32.832031 117.113281 C 33.359375 117.128906 33.875 117.058594 34.378906 116.910156 C 34.882812 116.757812 35.351562 116.53125 35.78125 116.226562 C 36.214844 115.925781 36.585938 115.5625 36.902344 115.140625 C 37.214844 114.714844 37.457031 114.253906 37.621094 113.753906 C 37.789062 113.253906 37.871094 112.742188 37.871094 112.214844 C 37.871094 112.121094 37.871094 112.023438 37.863281 111.929688 C 38.34375 111.761719 38.785156 111.523438 39.191406 111.21875 C 39.597656 110.914062 39.949219 110.554688 40.242188 110.140625 C 40.535156 109.726562 40.757812 109.277344 40.914062 108.792969 C 41.066406 108.308594 41.144531 107.816406 41.144531 107.308594 C 41.144531 107.210938 41.144531 107.117188 41.136719 107.019531 C 41.613281 106.855469 42.058594 106.617188 42.460938 106.3125 C 42.867188 106.007812 43.21875 105.648438 43.511719 105.234375 C 43.804688 104.820312 44.027344 104.371094 44.183594 103.886719 C 44.335938 103.402344 44.414062 102.90625 44.414062 102.398438 C 44.414062 101.890625 44.335938 101.398438 44.183594 100.914062 C 44.027344 100.429688 43.804688 99.980469 43.511719 99.566406 C 43.21875 99.152344 42.867188 98.792969 42.460938 98.488281 C 42.058594 98.183594 41.613281 97.945312 41.136719 97.777344 C 41.144531 97.679688 41.144531 97.585938 41.144531 97.492188 C 41.144531 96.984375 41.066406 96.488281 40.914062 96.003906 C 40.757812 95.519531 40.535156 95.070312 40.242188 94.65625 C 39.949219 94.242188 39.597656 93.882812 39.191406 93.578125 C 38.785156 93.273438 38.34375 93.035156 37.863281 92.867188 C 37.871094 92.773438 37.871094 92.679688 37.871094 92.582031 C 37.871094 92.261719 37.839844 91.941406 37.777344 91.625 C 37.714844 91.3125 37.621094 91.003906 37.496094 90.707031 C 37.375 90.410156 37.222656 90.125 37.042969 89.859375 C 36.863281 89.589844 36.660156 89.34375 36.433594 89.113281 C 36.207031 88.886719 35.957031 88.683594 35.691406 88.503906 C 35.421875 88.324219 35.140625 88.175781 34.84375 88.050781 C 34.542969 87.925781 34.238281 87.835938 33.921875 87.769531 C 33.605469 87.707031 33.285156 87.675781 32.964844 87.675781 Z M 28.058594 99.988281 C 25.25 100.265625 23.148438 101.941406 23.148438 104.035156 L 24.785156 104.035156 C 24.785156 102.871094 26.214844 101.867188 28.058594 101.632812 L 28.058594 112.214844 C 28.058594 112.445312 28.035156 112.671875 27.988281 112.898438 C 27.941406 113.125 27.871094 113.34375 27.777344 113.554688 C 27.683594 113.765625 27.570312 113.964844 27.433594 114.148438 C 27.296875 114.335938 27.144531 114.507812 26.972656 114.660156 C 26.800781 114.816406 26.617188 114.949219 26.417969 115.066406 C 26.21875 115.179688 26.007812 115.273438 25.789062 115.34375 C 25.570312 115.414062 25.34375 115.460938 25.113281 115.484375 C 24.886719 115.507812 24.65625 115.507812 24.425781 115.480469 C 24.199219 115.457031 23.972656 115.40625 23.753906 115.335938 C 23.535156 115.261719 23.328125 115.167969 23.128906 115.050781 C 22.929688 114.933594 22.746094 114.796875 22.574219 114.640625 C 22.40625 114.484375 22.253906 114.3125 22.121094 114.125 C 21.984375 113.9375 21.875 113.738281 21.78125 113.527344 C 21.691406 113.316406 21.621094 113.097656 21.578125 112.871094 C 21.53125 112.644531 21.511719 112.414062 21.515625 112.183594 C 21.515625 111.953125 21.542969 111.726562 21.59375 111.503906 C 21.644531 111.273438 21.605469 111.0625 21.476562 110.871094 C 21.460938 110.847656 21.433594 110.832031 21.414062 110.808594 C 21.988281 109.984375 22.296875 109.074219 22.332031 108.070312 C 22.355469 107.21875 22.066406 106.496094 21.464844 105.898438 L 20.328125 107.078125 C 20.59375 107.355469 20.71875 107.683594 20.695312 108.070312 C 20.648438 108.84375 20.382812 109.535156 19.894531 110.140625 C 19.589844 109.972656 19.320312 109.757812 19.082031 109.5 C 18.847656 109.238281 18.660156 108.949219 18.515625 108.628906 C 18.375 108.3125 18.289062 107.976562 18.253906 107.628906 C 18.222656 107.28125 18.246094 106.933594 18.324219 106.59375 C 18.375 106.367188 18.335938 106.15625 18.207031 105.964844 C 18.078125 105.769531 17.898438 105.652344 17.671875 105.613281 C 17.292969 105.546875 16.9375 105.417969 16.605469 105.226562 C 16.273438 105.035156 15.984375 104.792969 15.738281 104.496094 C 15.492188 104.203125 15.300781 103.875 15.171875 103.515625 C 15.039062 103.15625 14.972656 102.785156 14.972656 102.398438 C 14.972656 102.015625 15.039062 101.644531 15.171875 101.285156 C 15.300781 100.921875 15.492188 100.597656 15.738281 100.300781 C 15.984375 100.007812 16.273438 99.765625 16.605469 99.574219 C 16.9375 99.382812 17.292969 99.253906 17.671875 99.1875 C 17.679688 99.1875 17.691406 99.179688 17.699219 99.175781 C 18.902344 99.414062 19.878906 101.15625 19.878906 103.21875 L 21.511719 103.21875 C 21.511719 100.40625 20.136719 98.128906 18.253906 97.605469 C 18.253906 97.570312 18.242188 97.527344 18.242188 97.492188 C 18.242188 97.109375 18.308594 96.734375 18.4375 96.375 C 18.570312 96.015625 18.757812 95.6875 19.007812 95.394531 C 19.253906 95.097656 19.542969 94.855469 19.875 94.664062 C 20.207031 94.472656 20.5625 94.34375 20.941406 94.277344 C 20.949219 94.277344 20.957031 94.269531 20.96875 94.265625 C 22.175781 94.503906 23.148438 96.25 23.148438 98.308594 L 24.785156 98.308594 C 24.785156 95.5 23.410156 93.222656 21.527344 92.699219 C 21.527344 92.660156 21.511719 92.621094 21.511719 92.582031 C 21.511719 92.148438 21.597656 91.730469 21.761719 91.332031 C 21.929688 90.929688 22.164062 90.578125 22.472656 90.269531 C 22.777344 89.964844 23.132812 89.726562 23.53125 89.5625 C 23.933594 89.394531 24.351562 89.3125 24.785156 89.3125 C 25.21875 89.3125 25.636719 89.394531 26.039062 89.5625 C 26.4375 89.726562 26.792969 89.964844 27.097656 90.269531 C 27.40625 90.578125 27.640625 90.929688 27.808594 91.332031 C 27.972656 91.730469 28.058594 92.148438 28.058594 92.582031 Z M 39.507812 97.492188 C 39.507812 97.527344 39.496094 97.566406 39.496094 97.605469 C 37.613281 98.128906 36.238281 100.40625 36.238281 103.21875 L 37.871094 103.21875 C 37.871094 101.15625 38.847656 99.414062 40.050781 99.175781 C 40.0625 99.175781 40.070312 99.183594 40.082031 99.1875 C 40.457031 99.253906 40.8125 99.382812 41.144531 99.574219 C 41.476562 99.765625 41.769531 100.007812 42.015625 100.300781 C 42.261719 100.59375 42.449219 100.921875 42.582031 101.28125 C 42.710938 101.644531 42.777344 102.015625 42.777344 102.398438 C 42.777344 102.78125 42.710938 103.15625 42.582031 103.515625 C 42.449219 103.875 42.261719 104.203125 42.015625 104.496094 C 41.769531 104.789062 41.476562 105.035156 41.144531 105.226562 C 40.8125 105.417969 40.457031 105.546875 40.082031 105.613281 C 39.851562 105.652344 39.671875 105.769531 39.542969 105.964844 C 39.414062 106.15625 39.375 106.367188 39.425781 106.59375 C 39.503906 106.933594 39.527344 107.277344 39.496094 107.628906 C 39.464844 107.976562 39.375 108.308594 39.234375 108.628906 C 39.09375 108.949219 38.902344 109.238281 38.667969 109.496094 C 38.433594 109.753906 38.160156 109.96875 37.855469 110.140625 C 37.367188 109.535156 37.101562 108.84375 37.054688 108.070312 C 37.03125 107.683594 37.15625 107.355469 37.421875 107.078125 L 36.285156 105.898438 C 35.683594 106.496094 35.394531 107.21875 35.417969 108.070312 C 35.453125 109.074219 35.757812 109.984375 36.332031 110.808594 C 36.3125 110.832031 36.289062 110.847656 36.269531 110.871094 C 36.140625 111.0625 36.101562 111.273438 36.152344 111.503906 C 36.203125 111.726562 36.230469 111.957031 36.234375 112.1875 C 36.238281 112.417969 36.21875 112.644531 36.175781 112.871094 C 36.128906 113.097656 36.0625 113.320312 35.972656 113.53125 C 35.878906 113.742188 35.765625 113.945312 35.632812 114.132812 C 35.5 114.320312 35.347656 114.492188 35.179688 114.648438 C 35.007812 114.804688 34.824219 114.941406 34.625 115.058594 C 34.425781 115.175781 34.214844 115.269531 33.996094 115.34375 C 33.777344 115.417969 33.554688 115.464844 33.324219 115.492188 C 33.09375 115.515625 32.863281 115.519531 32.632812 115.496094 C 32.40625 115.472656 32.179688 115.425781 31.960938 115.351562 C 31.738281 115.28125 31.53125 115.1875 31.328125 115.074219 C 31.128906 114.957031 30.945312 114.824219 30.773438 114.667969 C 30.601562 114.511719 30.449219 114.34375 30.3125 114.15625 C 30.175781 113.96875 30.0625 113.769531 29.96875 113.558594 C 29.875 113.34375 29.808594 113.125 29.761719 112.898438 C 29.714844 112.675781 29.691406 112.445312 29.691406 112.214844 L 29.691406 108.832031 C 31.582031 108.316406 32.964844 106.035156 32.964844 103.21875 L 31.328125 103.21875 C 31.328125 104.957031 30.632812 106.46875 29.691406 107.046875 L 29.691406 92.582031 C 29.691406 92.148438 29.777344 91.730469 29.941406 91.332031 C 30.109375 90.929688 30.34375 90.578125 30.652344 90.269531 C 30.957031 89.964844 31.3125 89.726562 31.710938 89.5625 C 32.113281 89.394531 32.53125 89.3125 32.964844 89.3125 C 33.398438 89.3125 33.816406 89.394531 34.21875 89.5625 C 34.617188 89.726562 34.972656 89.964844 35.277344 90.269531 C 35.585938 90.578125 35.820312 90.929688 35.988281 91.332031 C 36.152344 91.730469 36.238281 92.148438 36.238281 92.582031 C 36.238281 92.621094 36.222656 92.660156 36.222656 92.699219 C 34.339844 93.222656 32.964844 95.5 32.964844 98.308594 L 34.601562 98.308594 C 34.601562 96.25 35.574219 94.503906 36.78125 94.265625 C 36.789062 94.265625 36.796875 94.277344 36.808594 94.277344 C 37.1875 94.34375 37.542969 94.472656 37.875 94.664062 C 38.207031 94.855469 38.496094 95.097656 38.742188 95.394531 C 38.992188 95.6875 39.179688 96.015625 39.3125 96.375 C 39.441406 96.734375 39.507812 97.109375 39.507812 97.492188 Z M 39.507812 97.492188"/><g clip-path="url(#d)"><path fill="#172026" d="M 30.605469 122.777344 L 31.820312 121.867188 L 30.839844 120.558594 L 27.566406 123.011719 C 27.464844 123.089844 27.382812 123.183594 27.324219 123.300781 C 27.269531 123.414062 27.238281 123.535156 27.238281 123.664062 C 27.238281 123.792969 27.269531 123.917969 27.324219 124.03125 C 27.382812 124.148438 27.464844 124.242188 27.566406 124.320312 L 30.839844 126.773438 L 31.820312 125.464844 L 30.421875 124.417969 C 41.050781 123.75 49.390625 116.289062 50.953125 105.789062 L 49.335938 105.550781 C 47.882812 115.332031 40.453125 122.066406 30.605469 122.777344 Z M 30.605469 122.777344"/></g><g clip-path="url(#e)"><path fill="#172026" d="M 50.894531 100.851562 C 50.226562 90.222656 42.765625 81.882812 32.265625 80.320312 L 32.027344 81.9375 C 41.808594 83.390625 48.542969 90.820312 49.253906 100.667969 L 48.34375 99.453125 L 47.035156 100.4375 L 49.488281 103.707031 C 49.566406 103.8125 49.660156 103.890625 49.777344 103.949219 C 49.890625 104.007812 50.011719 104.035156 50.140625 104.035156 C 50.269531 104.035156 50.390625 104.007812 50.507812 103.949219 C 50.621094 103.890625 50.71875 103.8125 50.796875 103.707031 L 53.25 100.4375 L 51.941406 99.453125 Z M 50.894531 100.851562"/></g><g clip-path="url(#f)"><path fill="#172026" d="M 8.496094 104.128906 L 9.40625 105.34375 L 10.714844 104.363281 L 8.261719 101.089844 C 8.183594 100.992188 8.085938 100.917969 7.96875 100.863281 C 7.855469 100.808594 7.734375 100.78125 7.609375 100.78125 C 7.480469 100.78125 7.359375 100.808594 7.246094 100.863281 C 7.132812 100.917969 7.035156 100.992188 6.953125 101.089844 L 4.5 104.363281 L 5.808594 105.34375 L 6.855469 103.949219 C 7.523438 114.578125 14.984375 122.914062 25.484375 124.476562 L 25.722656 122.859375 C 15.941406 121.40625 9.207031 113.976562 8.496094 104.128906 Z M 8.496094 104.128906"/></g><g fill="#027373"><g><g><path d="M 16.4375 -13.4375 C 16.4375 -11.238281 15.785156 -9.535156 14.484375 -8.328125 C 13.179688 -7.128906 11.335938 -6.53125 8.953125 -6.53125 L 7.453125 -6.53125 L 7.453125 0 L 2.125 0 L 2.125 -19.703125 L 8.953125 -19.703125 C 11.441406 -19.703125 13.3125 -19.160156 14.5625 -18.078125 C 15.8125 -16.992188 16.4375 -15.445312 16.4375 -13.4375 Z M 7.453125 -10.875 L 8.421875 -10.875 C 9.222656 -10.875 9.859375 -11.097656 10.328125 -11.546875 C 10.804688 -12.003906 11.046875 -12.625 11.046875 -13.40625 C 11.046875 -14.738281 10.304688 -15.40625 8.828125 -15.40625 L 7.453125 -15.40625 Z M 7.453125 -10.875" transform="translate(155.635 85.357)"/></g></g></g><g fill="#027373"><g><g><path d="M 7.453125 -7.171875 L 7.453125 0 L 2.125 0 L 2.125 -19.703125 L 8.59375 -19.703125 C 13.945312 -19.703125 16.625 -17.765625 16.625 -13.890625 C 16.625 -11.609375 15.507812 -9.84375 13.28125 -8.59375 L 19.015625 0 L 12.984375 0 L 8.796875 -7.171875 Z M 7.453125 -11.171875 L 8.453125 -11.171875 C 10.316406 -11.171875 11.25 -11.992188 11.25 -13.640625 C 11.25 -14.992188 10.332031 -15.671875 8.5 -15.671875 L 7.453125 -15.671875 Z M 7.453125 -11.171875" transform="translate(179.187 85.357)"/></g></g></g><g fill="#027373"><g><g><path d="M 14.21875 0 L 13.25 -3.6875 L 6.84375 -3.6875 L 5.84375 0 L 0 0 L 6.4375 -19.796875 L 13.53125 -19.796875 L 20.046875 0 Z M 12.140625 -8.0625 L 11.296875 -11.296875 C 11.097656 -12.015625 10.859375 -12.941406 10.578125 -14.078125 C 10.296875 -15.222656 10.109375 -16.046875 10.015625 -16.546875 C 9.929688 -16.085938 9.769531 -15.332031 9.53125 -14.28125 C 9.300781 -13.226562 8.773438 -11.15625 7.953125 -8.0625 Z M 12.140625 -8.0625" transform="translate(203.98 85.357)"/></g></g></g><g fill="#027373"><g><g><path d="M 10.046875 -11.546875 L 18.546875 -11.546875 L 18.546875 -0.921875 C 16.234375 -0.128906 13.695312 0.265625 10.9375 0.265625 C 7.894531 0.265625 5.546875 -0.613281 3.890625 -2.375 C 2.234375 -4.132812 1.40625 -6.644531 1.40625 -9.90625 C 1.40625 -13.09375 2.3125 -15.570312 4.125 -17.34375 C 5.9375 -19.113281 8.476562 -20 11.75 -20 C 12.988281 -20 14.160156 -19.878906 15.265625 -19.640625 C 16.367188 -19.410156 17.328125 -19.113281 18.140625 -18.75 L 16.453125 -14.578125 C 15.035156 -15.273438 13.476562 -15.625 11.78125 -15.625 C 10.226562 -15.625 9.023438 -15.117188 8.171875 -14.109375 C 7.328125 -13.097656 6.90625 -11.65625 6.90625 -9.78125 C 6.90625 -7.9375 7.285156 -6.53125 8.046875 -5.5625 C 8.816406 -4.59375 9.925781 -4.109375 11.375 -4.109375 C 12.164062 -4.109375 12.894531 -4.1875 13.5625 -4.34375 L 13.5625 -7.421875 L 10.046875 -7.421875 Z M 10.046875 -11.546875" transform="translate(230.136 85.357)"/></g></g></g><g fill="#027373"><g><g><path d="M 10.71875 0 L 6.6875 -14.203125 L 6.5625 -14.203125 C 6.75 -11.773438 6.84375 -9.894531 6.84375 -8.5625 L 6.84375 0 L 2.125 0 L 2.125 -19.703125 L 9.21875 -19.703125 L 13.328125 -5.71875 L 13.4375 -5.71875 L 17.46875 -19.703125 L 24.578125 -19.703125 L 24.578125 0 L 19.6875 0 L 19.6875 -8.640625 C 19.6875 -9.085938 19.691406 -9.582031 19.703125 -10.125 C 19.710938 -10.675781 19.773438 -12.023438 19.890625 -14.171875 L 19.765625 -14.171875 L 15.78125 0 Z M 10.71875 0" transform="translate(256.682 85.357)"/></g></g></g><g fill="#027373"><g><g><path d="M 10.828125 0 L 5.5 0 L 5.5 -15.359375 L 0.6875 -15.359375 L 0.6875 -19.703125 L 15.625 -19.703125 L 15.625 -15.359375 L 10.828125 -15.359375 Z M 10.828125 0" transform="translate(315.64 85.357)"/></g></g></g><g fill="#027373"><g><g><path d="M 2.125 0 L 2.125 -19.703125 L 7.484375 -19.703125 L 7.484375 0 Z M 2.125 0" transform="translate(338.06 85.357)"/></g></g></g><g fill="#027373"><g><g><path d="M 10.90625 -15.625 C 9.632812 -15.625 8.644531 -15.101562 7.9375 -14.0625 C 7.226562 -13.03125 6.875 -11.601562 6.875 -9.78125 C 6.875 -5.976562 8.316406 -4.078125 11.203125 -4.078125 C 12.078125 -4.078125 12.921875 -4.195312 13.734375 -4.4375 C 14.554688 -4.6875 15.378906 -4.984375 16.203125 -5.328125 L 16.203125 -0.828125 C 14.554688 -0.0976562 12.695312 0.265625 10.625 0.265625 C 7.644531 0.265625 5.363281 -0.59375 3.78125 -2.3125 C 2.195312 -4.039062 1.40625 -6.535156 1.40625 -9.796875 C 1.40625 -11.835938 1.785156 -13.628906 2.546875 -15.171875 C 3.316406 -16.722656 4.421875 -17.914062 5.859375 -18.75 C 7.304688 -19.582031 9.003906 -20 10.953125 -20 C 13.085938 -20 15.125 -19.535156 17.0625 -18.609375 L 15.4375 -14.40625 C 14.707031 -14.75 13.976562 -15.035156 13.25 -15.265625 C 12.519531 -15.503906 11.738281 -15.625 10.90625 -15.625 Z M 10.90625 -15.625" transform="translate(353.778 85.357)"/></g></g></g><g fill="#027373"><g><g><path d="M 1.0625 -9.859375 L 4.5 -9.859375 C 5.84375 -9.859375 6.835938 -9.660156 7.484375 -9.265625 C 8.140625 -8.867188 8.46875 -8.25 8.46875 -7.40625 C 8.46875 -6.851562 8.320312 -6.378906 8.03125 -5.984375 C 7.75 -5.597656 7.378906 -5.347656 6.921875 -5.234375 L 6.921875 -5.171875 C 7.535156 -5.003906 7.976562 -4.734375 8.25 -4.359375 C 8.519531 -3.984375 8.65625 -3.492188 8.65625 -2.890625 C 8.65625 -1.992188 8.316406 -1.285156 7.640625 -0.765625 C 6.972656 -0.253906 6.0625 0 4.90625 0 L 1.0625 0 Z M 3.734375 -6.078125 L 4.53125 -6.078125 C 4.914062 -6.078125 5.210938 -6.15625 5.421875 -6.3125 C 5.628906 -6.46875 5.734375 -6.703125 5.734375 -7.015625 C 5.734375 -7.566406 5.316406 -7.84375 4.484375 -7.84375 L 3.734375 -7.84375 Z M 3.734375 -4.125 L 3.734375 -2.0625 L 4.671875 -2.0625 C 5.503906 -2.0625 5.921875 -2.410156 5.921875 -3.109375 C 5.921875 -3.429688 5.804688 -3.679688 5.578125 -3.859375 C 5.359375 -4.035156 5.035156 -4.125 4.609375 -4.125 Z M 3.734375 -4.125" transform="translate(121.77 79.92)"/></g></g></g><g fill="#027373"><g><g><path d="M 6.921875 0 L 1.0625 0 L 1.0625 -9.859375 L 6.921875 -9.859375 L 6.921875 -7.71875 L 3.734375 -7.71875 L 3.734375 -6.171875 L 6.6875 -6.171875 L 6.6875 -4.03125 L 3.734375 -4.03125 L 3.734375 -2.171875 L 6.921875 -2.171875 Z M 6.921875 0" transform="translate(131.07 79.92)"/></g></g></g></svg>